<mxfile host="65bd71144e">
    <diagram id="V5LfcVkbwhFjslruEclW" name="Page-1">
        <mxGraphModel dx="867" dy="602" grid="1" gridSize="10" guides="1" tooltips="1" connect="1" arrows="1" fold="1" page="1" pageScale="1" pageWidth="850" pageHeight="1100" math="0" shadow="0">
            <root>
                <mxCell id="0"/>
                <mxCell id="1" parent="0"/>
                <mxCell id="2" value="Function Purpose" style="swimlane;fontStyle=0;childLayout=stackLayout;horizontal=1;startSize=30;horizontalStack=0;resizeParent=1;resizeParentMax=0;resizeLast=0;collapsible=1;marginBottom=0;whiteSpace=wrap;html=1;" vertex="1" parent="1">
                    <mxGeometry x="40" y="40" width="360" height="120" as="geometry"/>
                </mxCell>
                <mxCell id="3" value="The &lt;code&gt;calcMovesMade&lt;/code&gt; function computes the distance moved from one position to another on a game board (likely for a game like Backgammon) and updates the &lt;code&gt;ThisTurn&lt;/code&gt; instance accordingly. It also manages how many moves are left based on the rolled dice." style="text;strokeColor=none;fillColor=none;align=left;verticalAlign=middle;spacingLeft=4;spacingRight=4;overflow=hidden;points=[[0,0.5],[1,0.5]];portConstraint=eastwest;rotatable=0;whiteSpace=wrap;html=1;" vertex="1" parent="2">
                    <mxGeometry y="30" width="360" height="90" as="geometry"/>
                </mxCell>
                <mxCell id="6" value="Parameters" style="swimlane;fontStyle=0;childLayout=stackLayout;horizontal=1;startSize=30;horizontalStack=0;resizeParent=1;resizeParentMax=0;resizeLast=0;collapsible=1;marginBottom=0;whiteSpace=wrap;html=1;" vertex="1" parent="1">
                    <mxGeometry x="40" y="200" width="160" height="240" as="geometry"/>
                </mxCell>
                <mxCell id="7" value="&lt;strong&gt;&lt;code&gt;thisTurn: ThisTurn&lt;/code&gt;&lt;/strong&gt;: An instance of &lt;code&gt;ThisTurn&lt;/code&gt; representing the current turn, including the current player, the moves made, and the remaining dice." style="text;strokeColor=none;fillColor=none;align=left;verticalAlign=middle;spacingLeft=4;spacingRight=4;overflow=hidden;points=[[0,0.5],[1,0.5]];portConstraint=eastwest;rotatable=0;whiteSpace=wrap;html=1;" vertex="1" parent="6">
                    <mxGeometry y="30" width="160" height="110" as="geometry"/>
                </mxCell>
                <mxCell id="8" value="&lt;strong&gt;&lt;code&gt;thisMove: ThisMove&lt;/code&gt;&lt;/strong&gt;: An instance of &lt;code&gt;ThisMove&lt;/code&gt; that indicates the start and end positions of the current move." style="text;strokeColor=none;fillColor=none;align=left;verticalAlign=middle;spacingLeft=4;spacingRight=4;overflow=hidden;points=[[0,0.5],[1,0.5]];portConstraint=eastwest;rotatable=0;whiteSpace=wrap;html=1;" vertex="1" parent="6">
                    <mxGeometry y="140" width="160" height="100" as="geometry"/>
                </mxCell>
                <mxCell id="10" value="Logic Breakdown" style="swimlane;fontStyle=0;childLayout=stackLayout;horizontal=1;startSize=30;horizontalStack=0;resizeParent=1;resizeParentMax=0;resizeLast=0;collapsible=1;marginBottom=0;whiteSpace=wrap;html=1;" vertex="1" parent="1">
                    <mxGeometry x="240" y="200" width="400" height="480" as="geometry"/>
                </mxCell>
                <mxCell id="11" value="&lt;p style=&quot;font-size: 14px;&quot;&gt;&lt;font style=&quot;font-size: 14px;&quot;&gt;&lt;strong style=&quot;&quot;&gt;Initialize Distance&lt;/strong&gt;:&lt;/font&gt;&lt;/p&gt;&lt;span style=&quot;background-color: initial; font-size: 14px;&quot;&gt;The variable &lt;/span&gt;&lt;code&gt;distance&lt;/code&gt;&lt;span style=&quot;background-color: initial;&quot;&gt; is initialized to &lt;/span&gt;&lt;code&gt;0&lt;/code&gt;&lt;span style=&quot;background-color: initial;&quot;&gt;, and the starting and ending bar indices (&lt;/span&gt;&lt;code&gt;fromBarIdx&lt;/code&gt;&lt;span style=&quot;background-color: initial;&quot;&gt; and &lt;/span&gt;&lt;code&gt;toBarIdx&lt;/code&gt;&lt;span style=&quot;background-color: initial;&quot;&gt;) are extracted from &lt;/span&gt;&lt;code&gt;thisMove&lt;/code&gt;&lt;span style=&quot;background-color: initial;&quot;&gt;.&lt;/span&gt;" style="text;strokeColor=none;fillColor=none;align=left;verticalAlign=middle;spacingLeft=4;spacingRight=4;overflow=hidden;points=[[0,0.5],[1,0.5]];portConstraint=eastwest;rotatable=0;whiteSpace=wrap;html=1;" vertex="1" parent="10">
                    <mxGeometry y="30" width="400" height="130" as="geometry"/>
                </mxCell>
                <mxCell id="12" value="&lt;font style=&quot;font-size: 14px;&quot;&gt;&lt;strong style=&quot;background-color: initial;&quot;&gt;Calculate Distance&lt;/strong&gt;&lt;span style=&quot;background-color: initial;&quot;&gt;:&lt;br&gt;&lt;/span&gt;&lt;/font&gt;&lt;br&gt;&lt;span style=&quot;background-color: initial;&quot;&gt;The distance is calculated based on the values of &lt;/span&gt;&lt;code&gt;fromBarIdx&lt;/code&gt;&lt;span style=&quot;background-color: initial;&quot;&gt; and &lt;/span&gt;&lt;code&gt;toBarIdx&lt;/code&gt;&lt;span style=&quot;background-color: initial;&quot;&gt;:&lt;/span&gt;" style="text;strokeColor=none;fillColor=none;align=left;verticalAlign=middle;spacingLeft=4;spacingRight=4;overflow=hidden;points=[[0,0.5],[1,0.5]];portConstraint=eastwest;rotatable=0;whiteSpace=wrap;html=1;" vertex="1" parent="10">
                    <mxGeometry y="160" width="400" height="80" as="geometry"/>
                </mxCell>
                <mxCell id="13" value="If &lt;code&gt;fromBarIdx&lt;/code&gt; is a number:&lt;br&gt;&lt;span style=&quot;background-color: initial;&quot;&gt;&lt;br&gt;If it's less than or equal to &lt;/span&gt;&lt;code&gt;11&lt;/code&gt;&lt;span style=&quot;background-color: initial;&quot;&gt;, it computes the distance based on whether &lt;/span&gt;&lt;code&gt;toBarIdx&lt;/code&gt;&lt;span style=&quot;background-color: initial;&quot;&gt; is also within the same range.&lt;/span&gt;&lt;br&gt;&lt;span style=&quot;background-color: initial;&quot;&gt;&lt;br&gt;If &lt;/span&gt;&lt;code&gt;fromBarIdx&lt;/code&gt;&lt;span style=&quot;background-color: initial;&quot;&gt; is greater than &lt;/span&gt;&lt;code&gt;11&lt;/code&gt;&lt;span style=&quot;background-color: initial;&quot;&gt;, it handles the calculations based on whether &lt;/span&gt;&lt;code&gt;toBarIdx&lt;/code&gt;&lt;span style=&quot;background-color: initial;&quot;&gt; is greater than &lt;/span&gt;&lt;code&gt;11&lt;/code&gt;&lt;span style=&quot;background-color: initial;&quot;&gt;.&lt;/span&gt;" style="text;strokeColor=none;fillColor=none;align=left;verticalAlign=middle;spacingLeft=4;spacingRight=4;overflow=hidden;points=[[0,0.5],[1,0.5]];portConstraint=eastwest;rotatable=0;whiteSpace=wrap;html=1;" vertex="1" parent="10">
                    <mxGeometry y="240" width="400" height="120" as="geometry"/>
                </mxCell>
                <mxCell id="14" value="&lt;span style=&quot;background-color: initial;&quot;&gt;If &lt;/span&gt;&lt;code&gt;fromBarIdx&lt;/code&gt;&lt;span style=&quot;background-color: initial;&quot;&gt; is a string:&lt;br&gt;&lt;/span&gt;&lt;br&gt;&lt;span style=&quot;background-color: initial;&quot;&gt;It checks if the move is starting from the player's out bar. Depending on the player's color, it calculates the distance to the target.&lt;br&gt;&lt;/span&gt;&lt;br&gt;&lt;span style=&quot;background-color: initial;&quot;&gt;It also checks if the move starts from the end bar and calculates the distance similarly.&lt;/span&gt;" style="text;strokeColor=none;fillColor=none;align=left;verticalAlign=middle;spacingLeft=4;spacingRight=4;overflow=hidden;points=[[0,0.5],[1,0.5]];portConstraint=eastwest;rotatable=0;whiteSpace=wrap;html=1;" vertex="1" parent="10">
                    <mxGeometry y="360" width="400" height="120" as="geometry"/>
                </mxCell>
            </root>
        </mxGraphModel>
    </diagram>
</mxfile>